<mxfile host="app.diagrams.net" modified="2023-12-18T19:56:56.943Z" agent="Mozilla/5.0 (Windows NT 10.0; Win64; x64) AppleWebKit/537.36 (KHTML, like Gecko) Chrome/118.0.0.0 Safari/537.36 OPR/104.0.0.0 (Edition Yx GX)" etag="rcu0CkRV0uhrCF8rM_54" version="22.1.11" type="device">
  <diagram name="Страница — 1" id="p3EVjUJBaFq_uDxjL_Kc">
    <mxGraphModel dx="1508" dy="891" grid="1" gridSize="10" guides="1" tooltips="1" connect="1" arrows="1" fold="1" page="1" pageScale="1" pageWidth="827" pageHeight="1169" math="0" shadow="0">
      <root>
        <mxCell id="0" />
        <mxCell id="1" parent="0" />
        <mxCell id="r5qMucGx2KmogNvKHMIi-14" value="" style="edgeStyle=orthogonalEdgeStyle;rounded=0;orthogonalLoop=1;jettySize=auto;html=1;" edge="1" parent="1" source="r5qMucGx2KmogNvKHMIi-1" target="r5qMucGx2KmogNvKHMIi-3">
          <mxGeometry relative="1" as="geometry" />
        </mxCell>
        <mxCell id="r5qMucGx2KmogNvKHMIi-1" value="Start" style="rounded=1;whiteSpace=wrap;html=1;" vertex="1" parent="1">
          <mxGeometry x="354" y="10" width="120" height="60" as="geometry" />
        </mxCell>
        <mxCell id="r5qMucGx2KmogNvKHMIi-15" value="" style="edgeStyle=orthogonalEdgeStyle;rounded=0;orthogonalLoop=1;jettySize=auto;html=1;" edge="1" parent="1" source="r5qMucGx2KmogNvKHMIi-3" target="r5qMucGx2KmogNvKHMIi-4">
          <mxGeometry relative="1" as="geometry" />
        </mxCell>
        <mxCell id="r5qMucGx2KmogNvKHMIi-3" value="userArray&lt;br&gt;" style="shape=parallelogram;perimeter=parallelogramPerimeter;whiteSpace=wrap;html=1;fixedSize=1;" vertex="1" parent="1">
          <mxGeometry x="350" y="130" width="128" height="60" as="geometry" />
        </mxCell>
        <mxCell id="r5qMucGx2KmogNvKHMIi-16" value="" style="edgeStyle=orthogonalEdgeStyle;rounded=0;orthogonalLoop=1;jettySize=auto;html=1;" edge="1" parent="1" source="r5qMucGx2KmogNvKHMIi-4" target="r5qMucGx2KmogNvKHMIi-5">
          <mxGeometry relative="1" as="geometry" />
        </mxCell>
        <mxCell id="r5qMucGx2KmogNvKHMIi-4" value="&#xa;&lt;span style=&quot;color: rgb(0, 0, 0); font-family: Helvetica; font-size: 12px; font-style: normal; font-variant-ligatures: normal; font-variant-caps: normal; font-weight: 400; letter-spacing: normal; orphans: 2; text-align: center; text-indent: 0px; text-transform: none; widows: 2; word-spacing: 0px; -webkit-text-stroke-width: 0px; background-color: rgb(251, 251, 251); text-decoration-thickness: initial; text-decoration-style: initial; text-decoration-color: initial; float: none; display: inline !important;&quot;&gt;lengths = 3&lt;/span&gt;&lt;br style=&quot;border-color: var(--border-color); color: rgb(0, 0, 0); font-family: Helvetica; font-size: 12px; font-style: normal; font-variant-ligatures: normal; font-variant-caps: normal; font-weight: 400; letter-spacing: normal; orphans: 2; text-align: center; text-indent: 0px; text-transform: none; widows: 2; word-spacing: 0px; -webkit-text-stroke-width: 0px; background-color: rgb(251, 251, 251); text-decoration-thickness: initial; text-decoration-style: initial; text-decoration-color: initial;&quot;&gt;&lt;span style=&quot;color: rgb(0, 0, 0); font-family: Helvetica; font-size: 12px; font-style: normal; font-variant-ligatures: normal; font-variant-caps: normal; font-weight: 400; letter-spacing: normal; orphans: 2; text-align: center; text-indent: 0px; text-transform: none; widows: 2; word-spacing: 0px; -webkit-text-stroke-width: 0px; background-color: rgb(251, 251, 251); text-decoration-thickness: initial; text-decoration-style: initial; text-decoration-color: initial; float: none; display: inline !important;&quot;&gt;n = 0&lt;/span&gt;&lt;br style=&quot;border-color: var(--border-color); color: rgb(0, 0, 0); font-family: Helvetica; font-size: 12px; font-style: normal; font-variant-ligatures: normal; font-variant-caps: normal; font-weight: 400; letter-spacing: normal; orphans: 2; text-align: center; text-indent: 0px; text-transform: none; widows: 2; word-spacing: 0px; -webkit-text-stroke-width: 0px; background-color: rgb(251, 251, 251); text-decoration-thickness: initial; text-decoration-style: initial; text-decoration-color: initial;&quot;&gt;&lt;span style=&quot;color: rgb(0, 0, 0); font-family: Helvetica; font-size: 12px; font-style: normal; font-variant-ligatures: normal; font-variant-caps: normal; font-weight: 400; letter-spacing: normal; orphans: 2; text-align: center; text-indent: 0px; text-transform: none; widows: 2; word-spacing: 0px; -webkit-text-stroke-width: 0px; background-color: rgb(251, 251, 251); text-decoration-thickness: initial; text-decoration-style: initial; text-decoration-color: initial; float: none; display: inline !important;&quot;&gt;finalArray = userArray.Length&lt;/span&gt;&#xa;&#xa;" style="rounded=0;whiteSpace=wrap;html=1;" vertex="1" parent="1">
          <mxGeometry x="290" y="250" width="248" height="80" as="geometry" />
        </mxCell>
        <mxCell id="r5qMucGx2KmogNvKHMIi-17" value="" style="edgeStyle=orthogonalEdgeStyle;rounded=0;orthogonalLoop=1;jettySize=auto;html=1;" edge="1" parent="1" source="r5qMucGx2KmogNvKHMIi-5" target="r5qMucGx2KmogNvKHMIi-9">
          <mxGeometry relative="1" as="geometry" />
        </mxCell>
        <mxCell id="r5qMucGx2KmogNvKHMIi-5" value="int i = 0;" style="rounded=0;whiteSpace=wrap;html=1;" vertex="1" parent="1">
          <mxGeometry x="310" y="400" width="208" height="60" as="geometry" />
        </mxCell>
        <mxCell id="r5qMucGx2KmogNvKHMIi-20" value="" style="edgeStyle=orthogonalEdgeStyle;rounded=0;orthogonalLoop=1;jettySize=auto;html=1;" edge="1" parent="1" source="r5qMucGx2KmogNvKHMIi-6" target="r5qMucGx2KmogNvKHMIi-7">
          <mxGeometry relative="1" as="geometry" />
        </mxCell>
        <mxCell id="r5qMucGx2KmogNvKHMIi-26" value="Yes" style="edgeLabel;html=1;align=center;verticalAlign=middle;resizable=0;points=[];" vertex="1" connectable="0" parent="r5qMucGx2KmogNvKHMIi-20">
          <mxGeometry x="-0.2114" y="-2" relative="1" as="geometry">
            <mxPoint x="2" y="2" as="offset" />
          </mxGeometry>
        </mxCell>
        <mxCell id="r5qMucGx2KmogNvKHMIi-22" value="" style="edgeStyle=orthogonalEdgeStyle;rounded=0;orthogonalLoop=1;jettySize=auto;html=1;entryX=1;entryY=0.5;entryDx=0;entryDy=0;" edge="1" parent="1" source="r5qMucGx2KmogNvKHMIi-6" target="r5qMucGx2KmogNvKHMIi-8">
          <mxGeometry relative="1" as="geometry">
            <mxPoint x="560" y="1010" as="targetPoint" />
            <Array as="points">
              <mxPoint x="560" y="740" />
              <mxPoint x="560" y="1020" />
            </Array>
          </mxGeometry>
        </mxCell>
        <mxCell id="r5qMucGx2KmogNvKHMIi-27" value="No" style="edgeLabel;html=1;align=center;verticalAlign=middle;resizable=0;points=[];" vertex="1" connectable="0" parent="r5qMucGx2KmogNvKHMIi-22">
          <mxGeometry x="-0.1722" y="-1" relative="1" as="geometry">
            <mxPoint y="11" as="offset" />
          </mxGeometry>
        </mxCell>
        <mxCell id="r5qMucGx2KmogNvKHMIi-6" value="userArray[i].Length &amp;lt;= lengths" style="rhombus;whiteSpace=wrap;html=1;" vertex="1" parent="1">
          <mxGeometry x="290" y="690" width="248" height="100" as="geometry" />
        </mxCell>
        <mxCell id="r5qMucGx2KmogNvKHMIi-21" value="" style="edgeStyle=orthogonalEdgeStyle;rounded=0;orthogonalLoop=1;jettySize=auto;html=1;" edge="1" parent="1" source="r5qMucGx2KmogNvKHMIi-7" target="r5qMucGx2KmogNvKHMIi-8">
          <mxGeometry relative="1" as="geometry" />
        </mxCell>
        <mxCell id="r5qMucGx2KmogNvKHMIi-7" value="&lt;div&gt;finalArray[n] = userArray[i];&lt;/div&gt;&lt;div&gt;&lt;span style=&quot;background-color: initial;&quot;&gt;n++;&lt;/span&gt;&lt;/div&gt;" style="rounded=0;whiteSpace=wrap;html=1;" vertex="1" parent="1">
          <mxGeometry x="326" y="860" width="176" height="60" as="geometry" />
        </mxCell>
        <mxCell id="r5qMucGx2KmogNvKHMIi-23" style="edgeStyle=orthogonalEdgeStyle;rounded=0;orthogonalLoop=1;jettySize=auto;html=1;" edge="1" parent="1" source="r5qMucGx2KmogNvKHMIi-8">
          <mxGeometry relative="1" as="geometry">
            <mxPoint x="414" y="500" as="targetPoint" />
            <Array as="points">
              <mxPoint x="241" y="1020" />
            </Array>
          </mxGeometry>
        </mxCell>
        <mxCell id="r5qMucGx2KmogNvKHMIi-8" value="i++;" style="rounded=0;whiteSpace=wrap;html=1;" vertex="1" parent="1">
          <mxGeometry x="354" y="990" width="120" height="60" as="geometry" />
        </mxCell>
        <mxCell id="r5qMucGx2KmogNvKHMIi-18" value="" style="edgeStyle=orthogonalEdgeStyle;rounded=0;orthogonalLoop=1;jettySize=auto;html=1;" edge="1" parent="1" source="r5qMucGx2KmogNvKHMIi-9" target="r5qMucGx2KmogNvKHMIi-6">
          <mxGeometry relative="1" as="geometry" />
        </mxCell>
        <mxCell id="r5qMucGx2KmogNvKHMIi-24" value="No" style="edgeLabel;html=1;align=center;verticalAlign=middle;resizable=0;points=[];" vertex="1" connectable="0" parent="r5qMucGx2KmogNvKHMIi-18">
          <mxGeometry x="-0.1257" y="2" relative="1" as="geometry">
            <mxPoint x="-2" as="offset" />
          </mxGeometry>
        </mxCell>
        <mxCell id="r5qMucGx2KmogNvKHMIi-19" value="" style="edgeStyle=orthogonalEdgeStyle;rounded=0;orthogonalLoop=1;jettySize=auto;html=1;" edge="1" parent="1" source="r5qMucGx2KmogNvKHMIi-9" target="r5qMucGx2KmogNvKHMIi-10">
          <mxGeometry relative="1" as="geometry" />
        </mxCell>
        <mxCell id="r5qMucGx2KmogNvKHMIi-28" value="Yes" style="edgeLabel;html=1;align=center;verticalAlign=middle;resizable=0;points=[];" vertex="1" connectable="0" parent="r5qMucGx2KmogNvKHMIi-19">
          <mxGeometry x="-0.2476" y="-1" relative="1" as="geometry">
            <mxPoint y="-1" as="offset" />
          </mxGeometry>
        </mxCell>
        <mxCell id="r5qMucGx2KmogNvKHMIi-9" value="&amp;nbsp;i &amp;lt; userArray.Length;" style="rhombus;whiteSpace=wrap;html=1;" vertex="1" parent="1">
          <mxGeometry x="320" y="530" width="188" height="90" as="geometry" />
        </mxCell>
        <mxCell id="r5qMucGx2KmogNvKHMIi-29" value="" style="edgeStyle=orthogonalEdgeStyle;rounded=0;orthogonalLoop=1;jettySize=auto;html=1;" edge="1" parent="1" source="r5qMucGx2KmogNvKHMIi-10" target="r5qMucGx2KmogNvKHMIi-11">
          <mxGeometry relative="1" as="geometry" />
        </mxCell>
        <mxCell id="r5qMucGx2KmogNvKHMIi-10" value="var result = FixedUserArray(array).Where(x =&gt; !string.IsNullOrEmpty(x)).ToArray();" style="rounded=0;whiteSpace=wrap;html=1;" vertex="1" parent="1">
          <mxGeometry x="550" y="545" width="254" height="60" as="geometry" />
        </mxCell>
        <mxCell id="r5qMucGx2KmogNvKHMIi-33" value="" style="edgeStyle=orthogonalEdgeStyle;rounded=0;orthogonalLoop=1;jettySize=auto;html=1;" edge="1" parent="1" source="r5qMucGx2KmogNvKHMIi-11" target="r5qMucGx2KmogNvKHMIi-13">
          <mxGeometry relative="1" as="geometry">
            <Array as="points">
              <mxPoint x="680" y="730" />
              <mxPoint x="680" y="730" />
            </Array>
          </mxGeometry>
        </mxCell>
        <mxCell id="r5qMucGx2KmogNvKHMIi-11" value="Print(result)" style="shape=document;whiteSpace=wrap;html=1;boundedLbl=1;" vertex="1" parent="1">
          <mxGeometry x="617" y="640" width="120" height="80" as="geometry" />
        </mxCell>
        <mxCell id="r5qMucGx2KmogNvKHMIi-13" value="End" style="rounded=1;whiteSpace=wrap;html=1;" vertex="1" parent="1">
          <mxGeometry x="620" y="760" width="120" height="60" as="geometry" />
        </mxCell>
      </root>
    </mxGraphModel>
  </diagram>
</mxfile>
